<svg xmlns="http://www.w3.org/2000/svg" width="29.158" height="62.198" viewBox="0 0 29.158 62.198">
  <path id="Icon_awesome-female" data-name="Icon awesome-female" d="M15.141,0A7.775,7.775,0,1,1,7.366,7.775,7.775,7.775,0,0,1,15.141,0M29.631,43.026,23.8,19.7a2.916,2.916,0,0,0-2.828-2.208h-1.38a10.676,10.676,0,0,1-8.9,0H9.31A2.916,2.916,0,0,0,6.481,19.7L.65,43.026a2.917,2.917,0,0,0,2.828,3.623h6.8V59.283A2.916,2.916,0,0,0,13.2,62.2h3.887A2.916,2.916,0,0,0,20,59.283V46.649h6.8A2.917,2.917,0,0,0,29.631,43.026Z" transform="translate(-0.562)" fill="#747474"/>
</svg>
