<svg xmlns="http://www.w3.org/2000/svg" width="23.324" height="62.198" viewBox="0 0 23.324 62.198">
  <path id="Icon_awesome-male" data-name="Icon awesome-male" d="M11.662,0A7.775,7.775,0,1,1,3.887,7.775,7.775,7.775,0,0,1,11.662,0m5.831,17.493h-1.38a10.676,10.676,0,0,1-8.9,0H5.831A5.831,5.831,0,0,0,0,23.324V39.846a2.916,2.916,0,0,0,2.916,2.916H4.859V59.283A2.916,2.916,0,0,0,7.775,62.2H15.55a2.916,2.916,0,0,0,2.916-2.916V42.761h1.944a2.916,2.916,0,0,0,2.916-2.916V23.324A5.831,5.831,0,0,0,17.493,17.493Z" fill="#747474"/>
</svg>
